<?xml version="1.0" encoding="utf-8"?><svg viewBox="0 0 576 512" xmlns="http://www.w3.org/2000/svg" xmlns:xlink="http://www.w3.org/1999/xlink"><style>:root>svg{display:none}:root>svg:target{display:block}</style><svg fill="none" viewBox="0 0 50 50" id="Entertainments" xmlns="http://www.w3.org/2000/svg"><path d="M25 49C11.767 49 1 38.233 1 25S11.767 1 25 1s24 10.767 24 24-10.767 24-24 24zm0-46.545C12.568 2.455 2.455 12.568 2.455 25c0 12.432 10.113 22.545 22.545 22.545 12.432 0 22.545-10.113 22.545-22.545C47.545 12.568 37.432 2.455 25 2.455z" fill="#2580CC"/><path d="M24.999 36.038c-3.46 0-6.917-.948-10.002-2.848l-.576-.355a.727.727 0 11.762-1.238l.576.355c5.7 3.51 12.78 3.512 18.479-.001l.576-.356a.728.728 0 01.764 1.237L35 33.19a19.04 19.04 0 01-10.001 2.85zM21.556 20.418a.731.731 0 01-.515-.212l-2.863-2.863-2.862 2.863a.728.728 0 01-1.029-1.028l3.376-3.376a.728.728 0 011.029 0l3.376 3.376a.728.728 0 01-.512 1.24zM35.198 20.418a.73.73 0 01-.515-.212l-2.863-2.863-2.862 2.863a.728.728 0 01-1.029-1.028l3.376-3.376a.728.728 0 011.029 0l3.376 3.376a.728.728 0 01-.512 1.24z" fill="#2580CC"/></svg><svg fill="none" viewBox="0 0 104 104" id="Group" xmlns="http://www.w3.org/2000/svg"><g filter="url(#bfilter0_d)"><path d="M47 67c12.15 0 22-9.85 22-22s-9.85-22-22-22-22 9.85-22 22 9.85 22 22 22z" fill="url(#bpaint0_linear)"/></g><defs><linearGradient id="bpaint0_linear" x1="21.103" y1="38.948" x2="81.053" y2="64.795" gradientUnits="userSpaceOnUse"><stop stop-color="#fff"/><stop offset="1" stop-color="#E4EFFF"/></linearGradient><filter id="bfilter0_d" x="0" y="0" width="104" height="104" filterUnits="userSpaceOnUse" color-interpolation-filters="sRGB"><feFlood flood-opacity="0" result="BackgroundImageFix"/><feColorMatrix in="SourceAlpha" values="0 0 0 0 0 0 0 0 0 0 0 0 0 0 0 0 0 0 127 0"/><feOffset dx="5" dy="7"/><feGaussianBlur stdDeviation="15"/><feColorMatrix values="0 0 0 0 0.190938 0 0 0 0 0.59865 0 0 0 0 0.975 0 0 0 0.4 0"/><feBlend in2="BackgroundImageFix" result="effect1_dropShadow"/><feBlend in="SourceGraphic" in2="effect1_dropShadow" result="shape"/></filter></defs></svg><svg fill="none" viewBox="0 0 50 50" id="Mailing" xmlns="http://www.w3.org/2000/svg"><path d="M45.13 42.124H4.87A3.874 3.874 0 011 38.254V11.87A3.874 3.874 0 014.87 8h40.26A3.874 3.874 0 0149 11.87v26.385a3.874 3.874 0 01-3.87 3.87zM4.87 9.548a2.324 2.324 0 00-2.322 2.322v26.385a2.325 2.325 0 002.321 2.321H45.13a2.325 2.325 0 002.322-2.321V11.869a2.324 2.324 0 00-2.322-2.321H4.87z" fill="#2580CC"/><path d="M25 28.95c-1.03 0-2.058-.341-2.842-1.024L2.38 10.688a.773.773 0 01-.074-1.09.773.773 0 011.093-.077L23.175 26.76c.99.862 2.662.86 3.65 0L46.598 9.523a.77.77 0 011.093.076.773.773 0 01-.075 1.09L27.842 27.926c-.783.684-1.813 1.026-2.842 1.026z" fill="#2580CC"/></svg><svg fill="none" viewBox="0 0 50 50" id="Payment" xmlns="http://www.w3.org/2000/svg"><path d="M48.346 39.157H1.654A.655.655 0 011 38.502V11.654c0-.36.293-.654.654-.654h46.691c.362 0 .655.293.655.655v26.848a.654.654 0 01-.654.654zm-46.037-1.31H47.69V12.31H2.31v25.539z" fill="#2580CC"/><path d="M48.346 17.817a6.17 6.17 0 01-6.163-6.162.655.655 0 011.309 0 4.86 4.86 0 004.854 4.853.655.655 0 010 1.309zM42.836 39.157a.655.655 0 01-.654-.655 6.17 6.17 0 016.162-6.162.655.655 0 010 1.308 4.86 4.86 0 00-4.853 4.854.653.653 0 01-.655.654zM1.654 17.817a.655.655 0 010-1.309 4.86 4.86 0 004.854-4.853.655.655 0 011.309 0 6.17 6.17 0 01-6.163 6.162zM7.162 39.157a.655.655 0 01-.654-.655 4.86 4.86 0 00-4.854-4.854.655.655 0 010-1.308 6.17 6.17 0 016.163 6.162.653.653 0 01-.655.654zM25.276 31.941c-1.792 0-4.035-1.116-4.985-1.87a.654.654 0 11.813-1.025c.818.648 2.774 1.587 4.172 1.587 1.36 0 3.371-.727 3.371-2.288 0-1.394-1.37-1.944-3.16-2.518l-.53-.172c-1.417-.477-4.362-1.47-4.362-3.855 0-2.305 1.793-3.854 4.46-3.854 2.69 0 4.375 1.381 4.446 1.44a.655.655 0 01-.838 1.007c-.026-.021-1.423-1.138-3.609-1.138-1.944 0-3.152.975-3.152 2.545 0 1.273 1.754 2.037 3.47 2.615l.51.166c1.621.519 4.072 1.303 4.072 3.764.002 2.481-2.735 3.596-4.678 3.596z" fill="#2580CC"/><path d="M25.056 33.89a.655.655 0 01-.655-.654V16.983a.655.655 0 011.31 0v16.253a.655.655 0 01-.655.655z" fill="#2580CC"/></svg><svg fill="none" viewBox="0 0 50 50" id="Sales" xmlns="http://www.w3.org/2000/svg"><path d="M42.138 48.063H7.728a.727.727 0 01-.727-.763L8.639 12.89a.727.727 0 01.728-.693H40.5c.389 0 .71.304.728.693L42.866 47.3a.728.728 0 01-.728.763zM8.492 46.606h32.88l-1.568-32.952H10.061L8.492 46.606z" fill="#2580CC"/><path d="M32.805 16.567a.728.728 0 01-.729-.728V8.6c0-3.938-3.204-7.144-7.143-7.144-3.94 0-7.144 3.206-7.144 7.144v7.239a.728.728 0 01-1.457 0V8.6c0-4.742 3.858-8.6 8.6-8.6 4.743 0 8.6 3.858 8.6 8.6v7.239a.727.727 0 01-.727.728z" fill="#2580CC"/></svg><svg fill="none" viewBox="0 0 50 50" id="Search" xmlns="http://www.w3.org/2000/svg"><path d="M11.415 45.767C5.671 45.767 1 41.095 1 35.352c0-5.742 4.672-10.416 10.415-10.416 5.742 0 10.416 4.672 10.416 10.416 0 5.744-4.674 10.415-10.416 10.415zm0-19.376c-4.94 0-8.96 4.02-8.96 8.961 0 4.94 4.02 8.96 8.96 8.96 4.94 0 8.961-4.02 8.961-8.96 0-4.941-4.02-8.961-8.962-8.961zM21.103 17.365a.728.728 0 01-.727-.727 5.533 5.533 0 00-5.527-5.528 5.544 5.544 0 00-5.203 3.656.727.727 0 01-1.369-.495 7.001 7.001 0 016.57-4.617 6.99 6.99 0 016.982 6.982.726.726 0 01-.726.729z" fill="#2580CC"/><path d="M21.103 36.08a.727.727 0 01-.727-.728V16.638a.728.728 0 011.454 0v18.714a.728.728 0 01-.727.727zM2.23 33.01a.728.728 0 01-.68-.986L8.18 14.566a.727.727 0 111.36.517L2.91 32.54a.728.728 0 01-.68.47zM19.551 9.33a.728.728 0 01-.727-.727 2.152 2.152 0 00-2.148-2.148c-.904 0-1.717.571-2.022 1.42a.726.726 0 11-1.369-.492A3.614 3.614 0 0116.675 5a3.607 3.607 0 013.604 3.603.727.727 0 01-.728.727z" fill="#2580CC"/><path d="M19.551 12.449a.728.728 0 01-.727-.727V8.603a.728.728 0 011.454 0v3.119a.727.727 0 01-.727.727zM12.948 11.067a.728.728 0 01-.68-.986l.975-2.57a.728.728 0 011.36.516l-.976 2.572a.725.725 0 01-.68.468zM38.585 45.767c-5.742 0-10.416-4.672-10.416-10.415 0-5.742 4.672-10.416 10.416-10.416C44.33 24.936 49 29.61 49 35.352c0 5.743-4.672 10.415-10.415 10.415zm0-19.376c-4.94 0-8.961 4.02-8.961 8.961 0 4.94 4.02 8.96 8.961 8.96 4.94 0 8.96-4.02 8.96-8.96 0-4.94-4.02-8.961-8.96-8.961zM28.897 17.365a.728.728 0 01-.728-.727 6.99 6.99 0 016.982-6.982 6.997 6.997 0 016.57 4.617.727.727 0 11-1.368.493 5.544 5.544 0 00-5.203-3.655 5.533 5.533 0 00-5.527 5.527.724.724 0 01-.726.727z" fill="#2580CC"/><path d="M28.897 36.08a.728.728 0 01-.728-.728V16.638a.728.728 0 011.455 0v18.714a.727.727 0 01-.727.728zM47.77 33.01a.726.726 0 01-.678-.468l-6.633-17.458a.728.728 0 011.36-.516l6.633 17.457a.728.728 0 01-.681.985zM30.449 9.33a.728.728 0 01-.728-.727A3.607 3.607 0 0133.324 5a3.61 3.61 0 013.39 2.383.727.727 0 11-1.368.493 2.155 2.155 0 00-2.023-1.421 2.152 2.152 0 00-2.149 2.148.724.724 0 01-.725.727z" fill="#2580CC"/><path d="M30.449 12.45a.728.728 0 01-.728-.728V8.603a.728.728 0 011.455 0v3.119a.727.727 0 01-.727.727zM37.052 11.067a.726.726 0 01-.679-.468l-.976-2.57a.728.728 0 011.36-.517l.976 2.57a.728.728 0 01-.68.985zM28.897 27.621h-7.794a.728.728 0 010-1.454h7.066V20.1h-7.066a.728.728 0 010-1.454h7.794c.401 0 .727.326.727.727v7.52a.727.727 0 01-.727.727z" fill="#2580CC"/></svg><svg fill="none" viewBox="0 0 50 50" id="Solve-problems" xmlns="http://www.w3.org/2000/svg"><path d="M32.998 35.705L17.746 35.7a.733.733 0 01-.728-.646c-.177-1.496-.7-3.61-2.196-5.164A16.337 16.337 0 019 17.374C9.001 8.346 16.347 1 25.374 1c9.027 0 16.372 7.346 16.372 16.374 0 4.864-2.145 9.446-5.886 12.569-1.436 1.502-1.959 3.617-2.136 5.116a.728.728 0 01-.726.646zm-14.616-1.47l13.98.005c.274-1.65.938-3.738 2.502-5.367 3.465-2.898 5.42-7.071 5.42-11.5-.002-8.22-6.689-14.908-14.91-14.908S10.466 9.153 10.466 17.374c0 4.425 1.953 8.596 5.36 11.442.043.037.083.08.117.125 1.519 1.617 2.167 3.667 2.438 5.295zM32.998 40.134H17.746a.733.733 0 010-1.464h15.252a.733.733 0 010 1.464zM32.998 44.566H17.746a.733.733 0 010-1.464h15.252a.733.733 0 010 1.464zM28.566 49H22.18a.733.733 0 010-1.465h6.386a.733.733 0 010 1.465z" fill="#2580CC"/></svg><svg fill="none" viewBox="0 0 50 50" id="Solve_problems" xmlns="http://www.w3.org/2000/svg"><path d="M32.998 35.705L17.746 35.7a.733.733 0 01-.728-.646c-.177-1.496-.7-3.61-2.196-5.164A16.337 16.337 0 019 17.374C9.001 8.346 16.347 1 25.374 1c9.027 0 16.372 7.346 16.372 16.374 0 4.864-2.145 9.446-5.886 12.569-1.436 1.502-1.959 3.617-2.136 5.116a.728.728 0 01-.726.646zm-14.616-1.47l13.98.005c.274-1.65.938-3.738 2.502-5.367 3.465-2.898 5.42-7.071 5.42-11.5-.002-8.22-6.689-14.908-14.91-14.908S10.466 9.153 10.466 17.374c0 4.425 1.953 8.596 5.36 11.442.043.037.083.08.117.125 1.519 1.617 2.167 3.667 2.438 5.295zM32.998 40.134H17.746a.733.733 0 010-1.464h15.252a.733.733 0 010 1.464zM32.998 44.566H17.746a.733.733 0 010-1.464h15.252a.733.733 0 010 1.464zM28.566 49H22.18a.733.733 0 010-1.465h6.386a.733.733 0 010 1.465z" fill="#2580CC"/></svg><svg fill="none" viewBox="0 0 50 50" id="Support" xmlns="http://www.w3.org/2000/svg"><path d="M35.392 49c-1.78 0-3.93-.44-6.294-1.318-5.186-1.924-10.826-5.728-15.884-10.708-5.059-4.98-8.92-10.534-10.876-15.639-1.78-4.64-1.784-8.451-.015-10.193.255-.252.515-.521.783-.798 1.618-1.672 3.476-3.57 5.864-3.47 1.67.068 3.286 1.088 4.942 3.115 4.888 5.988 2.686 8.122.135 10.597l-.45.44c-.417.41-1.208 2.313 6.131 9.538 2.395 2.358 4.438 4.084 6.07 5.128 1.029.659 2.864 1.652 3.618.91l.453-.45c2.512-2.51 4.68-4.672 10.757.14 2.06 1.628 3.093 3.22 3.164 4.864.1 2.382-1.828 4.184-3.528 5.775-.279.262-.554.517-.809.768-.883.866-2.288 1.3-4.061 1.3zM8.8 8.287c-1.72 0-3.274 1.61-4.649 3.034-.276.283-.545.562-.809.822-1.318 1.296-1.183 4.709.343 8.692 1.885 4.92 5.63 10.297 10.547 15.139 4.916 4.84 10.375 8.528 15.374 10.383 4.049 1.505 7.511 1.633 8.83.336.263-.26.545-.523.835-.795 1.478-1.383 3.153-2.95 3.08-4.688-.05-1.196-.933-2.48-2.627-3.819-5.066-4.009-6.481-2.595-8.83-.25l-.46.458c-1.122 1.107-2.947.86-5.42-.722-1.716-1.099-3.838-2.888-6.303-5.316-6.09-5.996-8.039-9.663-6.132-11.544l.458-.446c2.386-2.313 3.827-3.708-.246-8.698-1.361-1.665-2.665-2.535-3.88-2.585L8.8 8.287z" fill="#2580CC"/><path d="M40.173 37.548c-.222 0-.44-.1-.581-.29a.704.704 0 01.156-.99 18.943 18.943 0 003.94-3.803 18.367 18.367 0 003.871-11.325c.002-10.324-8.527-18.723-19.012-18.723-3.177 0-6.322.788-9.092 2.275a.72.72 0 01-.976-.282.702.702 0 01.286-.961A20.74 20.74 0 0128.547 1C39.825 1 49 10.034 49 21.14c0 4.444-1.44 8.655-4.168 12.184a20.387 20.387 0 01-4.235 4.09.728.728 0 01-.424.134z" fill="#2580CC"/><path d="M24.543 13.479c.857-.255 1.68-.414 2.569-.414 2.297 0 3.701 1.13 3.701 3.055 0 1.066-.598 1.878-1.875 2.705l-2.569 1.702c-.793.526-1.148 1.354-1.148 2.245h5.251c.114 0 .179.064.179.174v1.226c0 .11-.065.174-.179.174h-6.9c-.113 0-.178-.063-.178-.174v-.764c0-1.941.646-3.341 2.1-4.28l2.555-1.672c.646-.43.935-.844.935-1.336 0-.891-.71-1.464-1.875-1.464-.727 0-1.422.128-2.035.333l-.939.304c-.095.03-.177-.017-.21-.112l-.403-1.193c-.049-.095 0-.176.112-.207l.909-.302zM40.79 21.324c0 .112-.064.176-.177.176h-1.001v2.674c0 .11-.065.174-.179.174H37.98c-.114 0-.179-.063-.179-.174V21.5h-5.416c-.112 0-.177-.064-.177-.176v-1.336c0-.095.017-.159.082-.223.403-.46.758-.89 1.147-1.415l2.99-3.788c.307-.398.55-.78.824-1.226.065-.08.13-.11.226-.11h1.955c.113 0 .178.063.178.174v6.524h1.002c.112 0 .177.064.177.176v1.224h.001zm-2.989-4.153c0-.509.032-1.02.096-1.56.032-.192-.112-.24-.241-.064l-2.62 3.277a6.73 6.73 0 01-.742.86c-.114.127-.05.237.08.237h3.427v-2.75z" fill="#2580CC"/></svg><svg fill="none" viewBox="0 0 50 50" id="Surveys" xmlns="http://www.w3.org/2000/svg"><path d="M11.035 49H3.064a.73.73 0 01-.73-.73V22.58a.73.73 0 01.73-.73h7.971a.73.73 0 01.73.73v25.69a.73.73 0 01-.73.73zm-7.241-1.46h6.511V23.31H3.794V47.54zM28.99 49h-7.977a.73.73 0 01-.73-.73V11a.73.73 0 01.73-.73h7.977a.73.73 0 01.73.73V48.27a.73.73 0 01-.73.73zm-7.247-1.46h6.517V11.729h-6.517v35.813zM46.936 49H38.96a.73.73 0 01-.73-.73V1.73a.73.73 0 01.73-.73h7.977a.73.73 0 01.73.73v46.54a.73.73 0 01-.73.73zm-7.247-1.46h6.517V2.46H39.69v45.08z" fill="#2580CC"/></svg><svg fill="none" viewBox="0 0 50 50" id="Training" xmlns="http://www.w3.org/2000/svg"><path d="M11.592 48.145a.727.727 0 01-.727-.728V37.055C4.498 33.745 1 27.948 1 20.685 1 9.464 11.317 1 25 1s24 8.463 24 19.686C49 31.908 38.683 40.37 25 40.37c-.45 0-.89-.024-1.332-.048l-.03-.001-11.646 7.703c-.12.08-.26.12-.4.12zM25 2.455c-12.852 0-22.545 7.838-22.545 18.23 0 4.834 1.64 11.407 9.459 15.272a.728.728 0 01.404.652v9.456l10.718-7.09a.663.663 0 01.44-.119l.27.014c.416.024.83.046 1.253.046 12.852 0 22.545-7.837 22.545-18.23S37.852 2.455 25 2.455z" fill="#2580CC"/><path d="M17.26 28.652a.726.726 0 01-.716-.86c1.004-5.36 1.383-5.74 1.546-5.903l9.672-9.672a1.676 1.676 0 011.199-.498h.001c.454 0 .88.177 1.202.498l2.807 2.806c.659.665.659 1.741.001 2.402l-9.674 9.672c-.161.16-.538.539-5.904 1.544a.843.843 0 01-.134.011zm1.91-5.789c-.193.418-.62 2.282-.992 4.144 1.919-.382 3.843-.825 4.18-1.008l9.585-9.603a.248.248 0 00-.002-.349l-2.806-2.803a.24.24 0 00-.343-.001l-9.622 9.62z" fill="#2580CC"/><path d="M22.783 27.31a.73.73 0 01-.515-.213l-4.18-4.18a.728.728 0 011.028-1.029l4.18 4.18a.728.728 0 01-.513 1.242z" fill="#2580CC"/></svg><svg aria-hidden="true" data-prefix="fas" data-icon="briefcase" class="lsvg-inline--fa lfa-briefcase lfa-w-16" viewBox="0 0 512 512" id="briefcase-icon" xmlns="http://www.w3.org/2000/svg"><path d="M320 336c0 8.84-7.16 16-16 16h-96c-8.84 0-16-7.16-16-16v-48H0v144c0 25.6 22.4 48 48 48h416c25.6 0 48-22.4 48-48V288H320v48zm144-208h-80V80c0-25.6-22.4-48-48-48H176c-25.6 0-48 22.4-48 48v48H48c-25.6 0-48 22.4-48 48v80h512v-80c0-25.6-22.4-48-48-48zm-144 0H192V96h128v32z"/></svg><svg aria-hidden="true" data-prefix="fas" data-icon="clipboard" class="msvg-inline--fa mfa-clipboard mfa-w-12" viewBox="0 0 384 512" id="clipboard-icon" xmlns="http://www.w3.org/2000/svg"><path d="M384 112v352c0 26.51-21.49 48-48 48H48c-26.51 0-48-21.49-48-48V112c0-26.51 21.49-48 48-48h80c0-35.29 28.71-64 64-64s64 28.71 64 64h80c26.51 0 48 21.49 48 48zM192 40c-13.255 0-24 10.745-24 24s10.745 24 24 24 24-10.745 24-24-10.745-24-24-24m96 114v-20a6 6 0 00-6-6H102a6 6 0 00-6 6v20a6 6 0 006 6h180a6 6 0 006-6z"/></svg><svg fill="none" viewBox="0 0 185 185" id="ellipse" xmlns="http://www.w3.org/2000/svg"><g filter="url(#nfilter0_d)"><circle cx="87.5" cy="85.5" r="62.5" fill="url(#npaint0_linear)"/></g><defs><linearGradient id="npaint0_linear" x1="13.93" y1="68.307" x2="184.241" y2="141.735" gradientUnits="userSpaceOnUse"><stop stop-color="#ABD2FF"/><stop offset="1" stop-color="#E4EFFF"/></linearGradient><filter id="nfilter0_d" x="0" y="0" width="185" height="185" filterUnits="userSpaceOnUse" color-interpolation-filters="sRGB"><feFlood flood-opacity="0" result="BackgroundImageFix"/><feColorMatrix in="SourceAlpha" values="0 0 0 0 0 0 0 0 0 0 0 0 0 0 0 0 0 0 127 0"/><feOffset dx="5" dy="7"/><feGaussianBlur stdDeviation="15"/><feColorMatrix values="0 0 0 0 0.190938 0 0 0 0 0.59865 0 0 0 0 0.975 0 0 0 0.4 0"/><feBlend in2="BackgroundImageFix" result="effect1_dropShadow"/><feBlend in="SourceGraphic" in2="effect1_dropShadow" result="shape"/></filter></defs></svg><svg aria-hidden="true" data-prefix="fas" data-icon="envelope" class="osvg-inline--fa ofa-envelope ofa-w-16" viewBox="0 0 512 512" id="envelope-icon" xmlns="http://www.w3.org/2000/svg"><path d="M502.3 190.8c3.9-3.1 9.7-.2 9.7 4.7V400c0 26.5-21.5 48-48 48H48c-26.5 0-48-21.5-48-48V195.6c0-5 5.7-7.8 9.7-4.7 22.4 17.4 52.1 39.5 154.1 113.6 21.1 15.4 56.7 47.8 92.2 47.6 35.7.3 72-32.8 92.3-47.6 102-74.1 131.6-96.3 154-113.7zM256 320c23.2.4 56.6-29.2 73.4-41.4 132.7-96.3 142.8-104.7 173.4-128.7 5.8-4.5 9.2-11.5 9.2-18.9v-19c0-26.5-21.5-48-48-48H48C21.5 64 0 85.5 0 112v19c0 7.4 3.4 14.3 9.2 18.9 30.6 23.9 40.7 32.4 173.4 128.7 16.8 12.2 50.2 41.8 73.4 41.4z"/></svg><svg aria-hidden="true" data-prefix="fab" data-icon="facebook-square" class="psvg-inline--fa pfa-facebook-square pfa-w-14" viewBox="0 0 448 512" id="facebook-brands-icon" xmlns="http://www.w3.org/2000/svg"><path d="M400 32H48A48 48 0 000 80v352a48 48 0 0048 48h137.25V327.69h-63V256h63v-54.64c0-62.15 37-96.48 93.67-96.48 27.14 0 55.52 4.84 55.52 4.84v61h-31.27c-30.81 0-40.42 19.12-40.42 38.73V256h68.78l-11 71.69h-57.78V480H400a48 48 0 0048-48V80a48 48 0 00-48-48z"/></svg><svg aria-hidden="true" data-prefix="fab" data-icon="instagram" class="qsvg-inline--fa qfa-instagram qfa-w-14" viewBox="0 0 448 512" id="instagram-brands-icon" xmlns="http://www.w3.org/2000/svg"><path d="M224.1 141c-63.6 0-114.9 51.3-114.9 114.9s51.3 114.9 114.9 114.9S339 319.5 339 255.9 287.7 141 224.1 141zm0 189.6c-41.1 0-74.7-33.5-74.7-74.7s33.5-74.7 74.7-74.7 74.7 33.5 74.7 74.7-33.6 74.7-74.7 74.7zm146.4-194.3c0 14.9-12 26.8-26.8 26.8-14.9 0-26.8-12-26.8-26.8s12-26.8 26.8-26.8 26.8 12 26.8 26.8zm76.1 27.2c-1.7-35.9-9.9-67.7-36.2-93.9-26.2-26.2-58-34.4-93.9-36.2-37-2.1-147.9-2.1-184.9 0-35.8 1.7-67.6 9.9-93.9 36.1s-34.4 58-36.2 93.9c-2.1 37-2.1 147.9 0 184.9 1.7 35.9 9.9 67.7 36.2 93.9s58 34.4 93.9 36.2c37 2.1 147.9 2.1 184.9 0 35.9-1.7 67.7-9.9 93.9-36.2 26.2-26.2 34.4-58 36.2-93.9 2.1-37 2.1-147.8 0-184.8zM398.8 388c-7.8 19.6-22.9 34.7-42.6 42.6-29.5 11.7-99.5 9-132.1 9s-102.7 2.6-132.1-9c-19.6-7.8-34.7-22.9-42.6-42.6-11.7-29.5-9-99.5-9-132.1s-2.6-102.7 9-132.1c7.8-19.6 22.9-34.7 42.6-42.6 29.5-11.7 99.5-9 132.1-9s102.7-2.6 132.1 9c19.6 7.8 34.7 22.9 42.6 42.6 11.7 29.5 9 99.5 9 132.1s2.7 102.7-9 132.1z"/></svg><svg aria-hidden="true" data-prefix="fas" data-icon="map-marker-alt" class="rsvg-inline--fa rfa-map-marker-alt rfa-w-12" viewBox="0 0 384 512" id="map-marker-icon" xmlns="http://www.w3.org/2000/svg"><path d="M172.268 501.67C26.97 291.031 0 269.413 0 192 0 85.961 85.961 0 192 0s192 85.961 192 192c0 77.413-26.97 99.031-172.268 309.67-9.535 13.774-29.93 13.773-39.464 0zM192 272c44.183 0 80-35.817 80-80s-35.817-80-80-80-80 35.817-80 80 35.817 80 80 80z"/></svg><svg aria-hidden="true" data-prefix="fas" data-icon="phone" class="ssvg-inline--fa sfa-phone sfa-w-16" viewBox="0 0 512 512" id="phone-icon" xmlns="http://www.w3.org/2000/svg"><path d="M493.4 24.6l-104-24c-11.3-2.6-22.9 3.3-27.5 13.9l-48 112c-4.2 9.8-1.4 21.3 6.9 28l60.6 49.6c-36 76.7-98.9 140.5-177.2 177.2l-49.6-60.6c-6.8-8.3-18.2-11.1-28-6.9l-112 48C3.9 366.5-2 378.1.6 389.4l24 104C27.1 504.2 36.7 512 48 512c256.1 0 464-207.5 464-464 0-11.2-7.7-20.9-18.6-23.4z"/></svg><svg fill="none" viewBox="0 0 184 204" id="polygon" xmlns="http://www.w3.org/2000/svg"><g filter="url(#tfilter0_d)"><path d="M25.357 166.223L148.908 94.89 25.358 23.558v142.665z" fill="url(#tpaint0_linear)"/></g><defs><linearGradient id="tpaint0_linear" x1="104.126" y1="10.924" x2="12.162" y2="195.65" gradientUnits="userSpaceOnUse"><stop stop-color="#ABD2FF"/><stop offset="1" stop-color="#E4EFFF"/></linearGradient><filter id="tfilter0_d" x=".357" y=".558" width="183.551" height="202.664" filterUnits="userSpaceOnUse" color-interpolation-filters="sRGB"><feFlood flood-opacity="0" result="BackgroundImageFix"/><feColorMatrix in="SourceAlpha" values="0 0 0 0 0 0 0 0 0 0 0 0 0 0 0 0 0 0 127 0"/><feOffset dx="5" dy="7"/><feGaussianBlur stdDeviation="15"/><feColorMatrix values="0 0 0 0 0.190938 0 0 0 0 0.59865 0 0 0 0 0.975 0 0 0 0.4 0"/><feBlend in2="BackgroundImageFix" result="effect1_dropShadow"/><feBlend in="SourceGraphic" in2="effect1_dropShadow" result="shape"/></filter></defs></svg><svg fill="none" viewBox="0 0 189 189" id="rectangle" xmlns="http://www.w3.org/2000/svg"><g filter="url(#ufilter0_d)"><path transform="rotate(-45 25 87.158)" fill="url(#upaint0_linear)" d="M25 87.158h90.733v90.733H25z"/></g><defs><linearGradient id="upaint0_linear" x1="16.965" y1="120.045" x2="140.587" y2="173.343" gradientUnits="userSpaceOnUse"><stop stop-color="#ABD2FF"/><stop offset="1" stop-color="#E4EFFF"/></linearGradient><filter id="ufilter0_d" x="0" y="0" width="188.316" height="188.316" filterUnits="userSpaceOnUse" color-interpolation-filters="sRGB"><feFlood flood-opacity="0" result="BackgroundImageFix"/><feColorMatrix in="SourceAlpha" values="0 0 0 0 0 0 0 0 0 0 0 0 0 0 0 0 0 0 127 0"/><feOffset dx="5" dy="7"/><feGaussianBlur stdDeviation="15"/><feColorMatrix values="0 0 0 0 0.190938 0 0 0 0 0.59865 0 0 0 0 0.975 0 0 0 0.4 0"/><feBlend in2="BackgroundImageFix" result="effect1_dropShadow"/><feBlend in="SourceGraphic" in2="effect1_dropShadow" result="shape"/></filter></defs></svg><svg aria-hidden="true" data-prefix="fas" data-icon="star" class="vsvg-inline--fa vfa-star vfa-w-18" viewBox="0 0 576 512" id="star-icon" xmlns="http://www.w3.org/2000/svg"><path fill="currentColor" d="M259.3 17.8L194 150.2 47.9 171.5c-26.2 3.8-36.7 36.1-17.7 54.6l105.7 103-25 145.5c-4.5 26.3 23.2 46 46.4 33.7L288 439.6l130.7 68.7c23.2 12.2 50.9-7.4 46.4-33.7l-25-145.5 105.7-103c19-18.5 8.5-50.8-17.7-54.6L382 150.2 316.7 17.8c-11.7-23.6-45.6-23.9-57.4 0z"/></svg><svg fill="none" viewBox="0 0 52 52" id="telegram-big-icon" xmlns="http://www.w3.org/2000/svg"><path fill-rule="evenodd" clip-rule="evenodd" d="M25.844 52c14.27 0 25.843-11.573 25.843-25.844 0-14.27-11.572-25.843-25.843-25.843S0 11.884 0 26.155 11.573 52 25.844 52zm-.318-11.378a2.063 2.063 0 002.079-1.28l8.421-20.675a2.067 2.067 0 00-2.694-2.695l-20.675 8.42a2.07 2.07 0 00.316 3.931l8.697 2.006 2.007 8.697a2.066 2.066 0 001.85 1.596z" fill="#fff"/></svg><svg aria-hidden="true" data-prefix="fab" data-icon="telegram" class="xsvg-inline--fa xfa-telegram xfa-w-16" viewBox="0 0 496 512" id="telegram-brands-icon" xmlns="http://www.w3.org/2000/svg"><path d="M248 8C111 8 0 119 0 256s111 248 248 248 248-111 248-248S385 8 248 8zm121.8 169.9l-40.7 191.8c-3 13.6-11.1 16.9-22.4 10.5l-62-45.7-29.9 28.8c-3.3 3.3-6.1 6.1-12.5 6.1l4.4-63.1 114.9-103.8c5-4.4-1.1-6.9-7.7-2.5l-142 89.4-61.2-19.1c-13.3-4.2-13.6-13.3 2.8-19.7l239.1-92.2c11.1-4 20.8 2.7 17.2 19.5z"/></svg><svg fill="none" viewBox="0 0 51 51" id="vk-big-icon" xmlns="http://www.w3.org/2000/svg"><circle cx="25.5" cy="25.5" r="25.5" fill="#fff"/><path fill-rule="evenodd" clip-rule="evenodd" d="M37.94 28.972a74.012 74.012 0 01-.845-.808c-.945-.922-1.005-1.457-.244-2.52a78.03 78.03 0 011.36-1.83c.404-.532.807-1.064 1.198-1.605l.083-.114c.754-1.043 1.511-2.09 1.908-3.338.261-.824.03-1.187-.815-1.332a2.616 2.616 0 00-.443-.026l-5.01-.006c-.617-.01-.957.26-1.176.806-.295.74-.598 1.478-.949 2.191-.796 1.617-1.685 3.18-2.932 4.504l-.054.057c-.26.28-.554.593-.985.451-.574-.21-.744-1.157-.734-1.476l-.005-5.781c-.11-.826-.295-1.194-1.115-1.355l-5.202.001c-.695 0-1.042.268-1.413.703-.214.25-.279.413.16.497.864.163 1.351.723 1.48 1.588.207 1.384.192 2.773.073 4.162-.035.406-.105.81-.265 1.189-.252.595-.659.716-1.192.35-.483-.331-.823-.8-1.155-1.269-1.248-1.763-2.243-3.664-3.055-5.662-.235-.577-.64-.927-1.251-.937a128.08 128.08 0 00-4.509.002c-.904.017-1.174.455-.805 1.275 1.636 3.64 3.458 7.18 5.836 10.404 1.221 1.654 2.623 3.115 4.434 4.15 2.052 1.174 4.261 1.527 6.589 1.418 1.09-.051 1.417-.335 1.467-1.42.035-.743.118-1.483.485-2.15.36-.656.905-.78 1.533-.372.314.203.578.462.829.737.203.222.403.446.604.67.405.454.81.907 1.237 1.34.798.813 1.744 1.293 2.933 1.194l4.605.001c.74-.049 1.126-.957.7-1.785-.3-.58-.692-1.097-1.109-1.597-.69-.828-1.47-1.568-2.252-2.307z" fill="#2580CC"/></svg><svg aria-hidden="true" data-prefix="fab" data-icon="vk" class="zsvg-inline--fa zfa-vk zfa-w-18" viewBox="0 0 576 512" id="vk-brands-icon" xmlns="http://www.w3.org/2000/svg"><path d="M545 117.7c3.7-12.5 0-21.7-17.8-21.7h-58.9c-15 0-21.9 7.9-25.6 16.7 0 0-30 73.1-72.4 120.5-13.7 13.7-20 18.1-27.5 18.1-3.7 0-9.4-4.4-9.4-16.9V117.7c0-15-4.2-21.7-16.6-21.7h-92.6c-9.4 0-15 7-15 13.5 0 14.2 21.2 17.5 23.4 57.5v86.8c0 19-3.4 22.5-10.9 22.5-20 0-68.6-73.4-97.4-157.4-5.8-16.3-11.5-22.9-26.6-22.9H38.8c-16.8 0-20.2 7.9-20.2 16.7 0 15.6 20 93.1 93.1 195.5C160.4 378.1 229 416 291.4 416c37.5 0 42.1-8.4 42.1-22.9 0-66.8-3.4-73.1 15.4-73.1 8.7 0 23.7 4.4 58.7 38.1 40 40 46.6 57.9 69 57.9h58.9c16.8 0 25.3-8.4 20.4-25-11.2-34.9-86.9-106.7-90.3-111.5-8.7-11.2-6.2-16.2 0-26.2.1-.1 72-101.3 79.4-135.6z"/></svg></svg>